# xmcd
#
# Track frame offsets: 
#        150
#        34665
#        53355
#        62963
#        68232
#        97595
#        120251
#        127713
#        137703
#        168697
#        180308
#        196657
#        205627
#        218269
#
# Disc length: 2976 seconds
#
# Revision: 0
# Processed by: cddbd v1.5.2PL0 Copyright (c) Steve Scherf et al.
# Submitted via: ExactAudioCopyFreeDBPlugin 1.0
#
DISCID=a90b9e0e
DTITLE=Jochen Malmsheimer, Heinz Peter Lengkeit, Grovve and Snoop Bluesb
DTITLE=and - A Story of BLUES oder RAPUNZEL JONES und die Suche nach d
DTITLE=er heiligen BLUE NOTE
DYEAR=2013
DGENRE=
TTITLE0=DIXIELAND - When the Sainst You Got to Move
TTITLE1=MEDLEY - King Bee
TTITLE2=POTPOURRI - Got my Mojo Working
TTITLE3=WORK SONG - Hömma zu - Ho, Boy
TTITLE4=NEW ORLEANS - Buddy Bolden Blues
TTITLE5=SWAMP - Congo Square
TTITLE6=BOOGIE WOOGIE - Boogie man
TTITLE7=ZYDECO - Feet don't fail me now
TTITLE8=CHICAGO BLUES - Manish Boy
TTITLE9=TEXAS BLUES - La Grange
TTITLE10=FUNK - Right Place, wrong time
TTITLE11=SOUL - I feel good
TTITLE12=RHYTHM AND BLUES - Too many Drivers
TTITLE13=COUNTRY BLUES - Country Blues
EXTD=
EXTT0=
EXTT1=
EXTT2=
EXTT3=
EXTT4=
EXTT5=
EXTT6=
EXTT7=
EXTT8=
EXTT9=
EXTT10=
EXTT11=
EXTT12=
EXTT13=
PLAYORDER=
